<mxfile host="app.diagrams.net" agent="Mozilla/5.0 (Macintosh; Intel Mac OS X 10_15_7) AppleWebKit/605.1.15 (KHTML, like Gecko) Version/15.3 Safari/605.1.15" version="26.2.13">
  <diagram name="Page-1" id="sLi19ek6nq1R5UbFe2ZN">
    <mxGraphModel dx="741" dy="491" grid="1" gridSize="10" guides="1" tooltips="1" connect="1" arrows="1" fold="1" page="1" pageScale="1" pageWidth="850" pageHeight="1100" math="0" shadow="0">
      <root>
        <mxCell id="0" />
        <mxCell id="1" parent="0" />
        <mxCell id="GjmUv7kNJ7Aa7xKS1p-6-20" value="" style="ellipse;whiteSpace=wrap;html=1;dashed=1;dashPattern=8 8;strokeWidth=1;fillColor=none;gradientColor=default;strokeColor=default;" vertex="1" parent="1">
          <mxGeometry x="80" y="364" width="340" height="200" as="geometry" />
        </mxCell>
        <mxCell id="GjmUv7kNJ7Aa7xKS1p-6-1" value="" style="shape=mxgraph.networks2.icon;fillColor=#EDEDED;strokeColor=#000000;gradientColor=#5B6163;network2IconShadow=1;network2bgFillColor=none;network2Icon=mxgraph.networks2.antenna;network2IconYOffset=0.0004;network2IconW=0.508;network2IconH=0.9997;" vertex="1" parent="1">
          <mxGeometry x="359" y="630" width="66" height="130" as="geometry" />
        </mxCell>
        <mxCell id="GjmUv7kNJ7Aa7xKS1p-6-2" value="" style="shape=mxgraph.networks2.icon;fillColor=#EDEDED;strokeColor=#000000;gradientColor=#5B6163;network2IconShadow=1;network2bgFillColor=none;network2Icon=mxgraph.networks2.antenna;network2IconYOffset=0.0004;network2IconW=0.508;network2IconH=0.9997;" vertex="1" parent="1">
          <mxGeometry x="548" y="105" width="72" height="160" as="geometry" />
        </mxCell>
        <mxCell id="GjmUv7kNJ7Aa7xKS1p-6-3" value="" style="sketch=0;outlineConnect=0;fontColor=#232F3E;gradientColor=none;fillColor=#232F3D;strokeColor=none;dashed=0;verticalLabelPosition=bottom;verticalAlign=top;align=center;html=1;fontSize=12;fontStyle=0;aspect=fixed;pointerEvents=1;shape=mxgraph.aws4.mobile_client;" vertex="1" parent="1">
          <mxGeometry x="80" y="820" width="36.81" height="70" as="geometry" />
        </mxCell>
        <mxCell id="GjmUv7kNJ7Aa7xKS1p-6-7" value="" style="rounded=1;whiteSpace=wrap;html=1;" vertex="1" parent="1">
          <mxGeometry x="40" y="115" width="270" height="150" as="geometry" />
        </mxCell>
        <mxCell id="GjmUv7kNJ7Aa7xKS1p-6-8" value="" style="sketch=0;outlineConnect=0;fontColor=#232F3E;gradientColor=none;fillColor=#232F3D;strokeColor=none;dashed=0;verticalLabelPosition=bottom;verticalAlign=top;align=center;html=1;fontSize=12;fontStyle=0;aspect=fixed;pointerEvents=1;shape=mxgraph.aws4.mobile_client;" vertex="1" parent="1">
          <mxGeometry x="470" y="364" width="41" height="78" as="geometry" />
        </mxCell>
        <mxCell id="GjmUv7kNJ7Aa7xKS1p-6-9" value="" style="sketch=0;outlineConnect=0;fontColor=#232F3E;gradientColor=none;fillColor=#232F3D;strokeColor=none;dashed=0;verticalLabelPosition=bottom;verticalAlign=top;align=center;html=1;fontSize=12;fontStyle=0;aspect=fixed;pointerEvents=1;shape=mxgraph.aws4.mobile_client;" vertex="1" parent="1">
          <mxGeometry x="530" y="364" width="41" height="78" as="geometry" />
        </mxCell>
        <mxCell id="GjmUv7kNJ7Aa7xKS1p-6-10" value="" style="sketch=0;outlineConnect=0;fontColor=#232F3E;gradientColor=none;fillColor=#232F3D;strokeColor=none;dashed=0;verticalLabelPosition=bottom;verticalAlign=top;align=center;html=1;fontSize=12;fontStyle=0;aspect=fixed;pointerEvents=1;shape=mxgraph.aws4.mobile_client;" vertex="1" parent="1">
          <mxGeometry x="659" y="364" width="41" height="78" as="geometry" />
        </mxCell>
        <mxCell id="GjmUv7kNJ7Aa7xKS1p-6-11" value="" style="sketch=0;outlineConnect=0;fontColor=#232F3E;gradientColor=none;fillColor=#232F3D;strokeColor=none;dashed=0;verticalLabelPosition=bottom;verticalAlign=top;align=center;html=1;fontSize=12;fontStyle=0;aspect=fixed;pointerEvents=1;shape=mxgraph.aws4.mobile_client;" vertex="1" parent="1">
          <mxGeometry x="700" y="500" width="41" height="78" as="geometry" />
        </mxCell>
        <mxCell id="GjmUv7kNJ7Aa7xKS1p-6-12" value="" style="shape=mxgraph.networks2.icon;fillColor=#EDEDED;strokeColor=#000000;gradientColor=#5B6163;network2IconShadow=1;network2bgFillColor=none;network2Icon=mxgraph.networks2.antenna;network2IconYOffset=0.0004;network2IconW=0.508;network2IconH=0.9997;" vertex="1" parent="1">
          <mxGeometry x="750" y="105" width="72" height="160" as="geometry" />
        </mxCell>
        <mxCell id="GjmUv7kNJ7Aa7xKS1p-6-14" style="rounded=0;orthogonalLoop=1;jettySize=auto;html=1;entryX=0.481;entryY=0.995;entryDx=0;entryDy=0;entryPerimeter=0;elbow=vertical;edgeStyle=orthogonalEdgeStyle;" edge="1" parent="1" source="GjmUv7kNJ7Aa7xKS1p-6-8" target="GjmUv7kNJ7Aa7xKS1p-6-2">
          <mxGeometry relative="1" as="geometry">
            <mxPoint x="491" y="580" as="sourcePoint" />
            <Array as="points">
              <mxPoint x="491" y="300" />
              <mxPoint x="583" y="300" />
            </Array>
          </mxGeometry>
        </mxCell>
        <mxCell id="GjmUv7kNJ7Aa7xKS1p-6-17" style="edgeStyle=orthogonalEdgeStyle;rounded=0;orthogonalLoop=1;jettySize=auto;html=1;entryX=0.486;entryY=0.995;entryDx=0;entryDy=0;entryPerimeter=0;" edge="1" parent="1" source="GjmUv7kNJ7Aa7xKS1p-6-9" target="GjmUv7kNJ7Aa7xKS1p-6-2">
          <mxGeometry relative="1" as="geometry">
            <Array as="points">
              <mxPoint x="551" y="320" />
              <mxPoint x="583" y="320" />
            </Array>
          </mxGeometry>
        </mxCell>
        <mxCell id="GjmUv7kNJ7Aa7xKS1p-6-18" style="edgeStyle=orthogonalEdgeStyle;rounded=0;orthogonalLoop=1;jettySize=auto;html=1;entryX=0.498;entryY=0.995;entryDx=0;entryDy=0;entryPerimeter=0;" edge="1" parent="1" source="GjmUv7kNJ7Aa7xKS1p-6-10" target="GjmUv7kNJ7Aa7xKS1p-6-2">
          <mxGeometry relative="1" as="geometry">
            <Array as="points">
              <mxPoint x="680" y="330" />
              <mxPoint x="584" y="330" />
            </Array>
          </mxGeometry>
        </mxCell>
        <mxCell id="GjmUv7kNJ7Aa7xKS1p-6-22" value="" style="sketch=0;outlineConnect=0;fontColor=#232F3E;gradientColor=none;fillColor=#232F3D;strokeColor=none;dashed=0;verticalLabelPosition=bottom;verticalAlign=top;align=center;html=1;fontSize=12;fontStyle=0;aspect=fixed;pointerEvents=1;shape=mxgraph.aws4.mobile_client;" vertex="1" parent="1">
          <mxGeometry x="648.45" y="1030" width="31.55" height="60" as="geometry" />
        </mxCell>
        <mxCell id="GjmUv7kNJ7Aa7xKS1p-6-23" value="" style="sketch=0;outlineConnect=0;fontColor=#232F3E;gradientColor=none;fillColor=#232F3D;strokeColor=none;dashed=0;verticalLabelPosition=bottom;verticalAlign=top;align=center;html=1;fontSize=12;fontStyle=0;aspect=fixed;pointerEvents=1;shape=mxgraph.aws4.mobile_client;" vertex="1" parent="1">
          <mxGeometry x="698.45" y="1030" width="31.55" height="60" as="geometry" />
        </mxCell>
        <mxCell id="GjmUv7kNJ7Aa7xKS1p-6-32" value="" style="ellipse;whiteSpace=wrap;html=1;dashed=1;dashPattern=8 8;strokeWidth=1;fillColor=none;gradientColor=default;strokeColor=default;" vertex="1" parent="1">
          <mxGeometry x="730" y="710" width="340" height="200" as="geometry" />
        </mxCell>
        <mxCell id="GjmUv7kNJ7Aa7xKS1p-6-33" value="" style="shape=mxgraph.networks2.icon;fillColor=#EDEDED;strokeColor=#000000;gradientColor=#5B6163;network2IconShadow=1;network2bgFillColor=none;network2Icon=mxgraph.networks2.antenna;network2IconYOffset=0.0004;network2IconW=0.508;network2IconH=0.9997;" vertex="1" parent="1">
          <mxGeometry x="867" y="630" width="66" height="130" as="geometry" />
        </mxCell>
        <mxCell id="GjmUv7kNJ7Aa7xKS1p-6-34" value="" style="sketch=0;outlineConnect=0;fontColor=#232F3E;gradientColor=none;fillColor=#232F3D;strokeColor=none;dashed=0;verticalLabelPosition=bottom;verticalAlign=top;align=center;html=1;fontSize=12;fontStyle=0;aspect=fixed;pointerEvents=1;shape=mxgraph.aws4.mobile_client;" vertex="1" parent="1">
          <mxGeometry x="799.22" y="800" width="31.55" height="60" as="geometry" />
        </mxCell>
        <mxCell id="GjmUv7kNJ7Aa7xKS1p-6-35" value="" style="sketch=0;outlineConnect=0;fontColor=#232F3E;gradientColor=none;fillColor=#232F3D;strokeColor=none;dashed=0;verticalLabelPosition=bottom;verticalAlign=top;align=center;html=1;fontSize=12;fontStyle=0;aspect=fixed;pointerEvents=1;shape=mxgraph.aws4.mobile_client;" vertex="1" parent="1">
          <mxGeometry x="940" y="800" width="31.55" height="60" as="geometry" />
        </mxCell>
        <mxCell id="GjmUv7kNJ7Aa7xKS1p-6-36" value="" style="sketch=0;outlineConnect=0;fontColor=#232F3E;gradientColor=none;fillColor=#232F3D;strokeColor=none;dashed=0;verticalLabelPosition=bottom;verticalAlign=top;align=center;html=1;fontSize=12;fontStyle=0;aspect=fixed;pointerEvents=1;shape=mxgraph.aws4.mobile_client;" vertex="1" parent="1">
          <mxGeometry x="990" y="800" width="31.55" height="60" as="geometry" />
        </mxCell>
        <mxCell id="GjmUv7kNJ7Aa7xKS1p-6-37" style="edgeStyle=orthogonalEdgeStyle;rounded=0;orthogonalLoop=1;jettySize=auto;html=1;entryX=0.508;entryY=0.974;entryDx=0;entryDy=0;entryPerimeter=0;" edge="1" parent="1" source="GjmUv7kNJ7Aa7xKS1p-6-36" target="GjmUv7kNJ7Aa7xKS1p-6-33">
          <mxGeometry relative="1" as="geometry">
            <Array as="points">
              <mxPoint x="1006" y="780" />
              <mxPoint x="901" y="780" />
            </Array>
          </mxGeometry>
        </mxCell>
        <mxCell id="GjmUv7kNJ7Aa7xKS1p-6-38" style="edgeStyle=orthogonalEdgeStyle;rounded=0;orthogonalLoop=1;jettySize=auto;html=1;entryX=0.508;entryY=0.974;entryDx=0;entryDy=0;entryPerimeter=0;" edge="1" parent="1" source="GjmUv7kNJ7Aa7xKS1p-6-35" target="GjmUv7kNJ7Aa7xKS1p-6-33">
          <mxGeometry relative="1" as="geometry">
            <Array as="points">
              <mxPoint x="956" y="780" />
              <mxPoint x="901" y="780" />
            </Array>
          </mxGeometry>
        </mxCell>
        <mxCell id="GjmUv7kNJ7Aa7xKS1p-6-39" style="edgeStyle=orthogonalEdgeStyle;rounded=0;orthogonalLoop=1;jettySize=auto;html=1;entryX=0.508;entryY=0.968;entryDx=0;entryDy=0;entryPerimeter=0;" edge="1" parent="1" source="GjmUv7kNJ7Aa7xKS1p-6-34" target="GjmUv7kNJ7Aa7xKS1p-6-33">
          <mxGeometry relative="1" as="geometry">
            <Array as="points">
              <mxPoint x="815" y="780" />
              <mxPoint x="901" y="780" />
            </Array>
          </mxGeometry>
        </mxCell>
        <mxCell id="GjmUv7kNJ7Aa7xKS1p-6-41" value="" style="endArrow=classic;startArrow=classic;html=1;rounded=0;endWidth=12.5;startWidth=12.5;strokeWidth=2;" edge="1" parent="1">
          <mxGeometry width="100" height="100" relative="1" as="geometry">
            <mxPoint x="500" y="470" as="sourcePoint" />
            <mxPoint x="1063" y="480" as="targetPoint" />
            <Array as="points" />
          </mxGeometry>
        </mxCell>
        <mxCell id="GjmUv7kNJ7Aa7xKS1p-6-42" value="" style="rounded=1;whiteSpace=wrap;html=1;" vertex="1" parent="1">
          <mxGeometry x="130" y="820" width="220" height="140" as="geometry" />
        </mxCell>
      </root>
    </mxGraphModel>
  </diagram>
</mxfile>
